<?xml version="1.0" standalone="no"?>
<!DOCTYPE svg PUBLIC "-//W3C//DTD SVG 20010904//EN"
 "http://www.w3.org/TR/2001/REC-SVG-20010904/DTD/svg10.dtd">
<svg version="1.0" xmlns="http://www.w3.org/2000/svg"
 width="128.000000pt" height="128.000000pt" viewBox="0 0 128.000000 128.000000"
 preserveAspectRatio="xMidYMid meet">
<metadata>
Created by potrace 1.14, written by Peter Selinger 2001-2017
</metadata>
<g transform="translate(0.000000,128.000000) scale(0.100000,-0.100000)"
fill="#000000" stroke="none">
<path d="M3 1264 c-11 -30 14 -144 47 -210 25 -52 47 -76 128 -143 53 -45 104
-81 112 -81 20 0 40 -19 40 -38 0 -8 32 -45 70 -82 l70 -67 -86 -77 c-48 -42
-92 -76 -98 -76 -7 0 -10 14 -8 38 8 90 -121 125 -162 43 -20 -39 -4 -77 58
-140 l55 -56 -87 -90 c-48 -50 -99 -98 -114 -108 -16 -10 -28 -24 -28 -33 0
-20 124 -144 144 -144 9 0 24 12 33 27 10 16 58 67 107 115 l90 88 37 -38 c60
-63 89 -82 125 -82 95 0 113 148 19 166 -19 3 -41 4 -49 1 -31 -12 -24 9 21
62 69 81 106 121 115 121 11 0 148 -161 148 -175 0 -7 -11 -10 -31 -7 -61 9
-108 -44 -94 -107 8 -38 39 -61 83 -61 28 0 45 11 96 60 l63 60 96 -95 c54
-53 97 -100 97 -105 0 -6 11 -16 25 -22 24 -11 30 -7 90 55 36 37 65 74 65 82
0 8 -12 23 -27 32 -16 10 -67 58 -115 107 l-88 90 60 62 c50 52 60 68 60 98 0
54 -57 98 -108 82 -41 -14 -64 -46 -60 -90 1 -22 -1 -40 -5 -39 -9 1 -77 56
-139 112 -21 18 -38 38 -38 45 0 6 27 36 60 65 33 30 60 59 60 66 0 13 33 43
67 63 60 33 186 150 213 197 32 56 60 150 60 202 0 27 -5 34 -27 39 -76 20
-237 -48 -304 -128 -89 -106 -159 -185 -233 -262 l-76 -79 -57 60 c-106 110
-162 172 -227 250 -84 102 -164 146 -287 159 -50 5 -60 3 -66 -12z"/>
</g>
</svg>
